<svg width="1156" height="265" viewBox="0 0 1156 265" fill="none" xmlns="http://www.w3.org/2000/svg">
<path d="M370.135 109.019C389.165 109.019 397.567 119.399 397.567 136.946V222.949H429.448C428.459 212.075 427.965 201.942 427.965 190.821V131.509C427.965 106.054 413.137 85.0473 381.009 85.0473C356.049 85.0473 335.042 101.605 325.651 125.083V42.0063H295.006V222.949H325.651V162.153C325.651 131.014 349.376 109.019 370.135 109.019Z" fill="#FEF2E6" style="fill:#FEF2E6;fill:color(display-p3 0.9961 0.9490 0.9020);fill-opacity:1;"/>
<path d="M448.886 222.944V88.5022H479.53V190.816C479.53 200.949 479.777 212.07 481.013 222.944H448.886Z" fill="#FEF2E6" style="fill:#FEF2E6;fill:color(display-p3 0.9961 0.9490 0.9020);fill-opacity:1;"/>
<path d="M447.897 71.2028V42.0408H480.519V71.2028H447.897Z" fill="#FEF2E6" style="fill:#FEF2E6;fill:color(display-p3 0.9961 0.9490 0.9020);fill-opacity:1;"/>
<path d="M1128.79 226.388C1104.58 226.388 1091.23 215.514 1091.23 192.283V111.223H1067.01V88.4862H1091.23V56.6735C1104.08 53.4608 1112.98 48.7652 1122.86 42.0925C1122.12 54.6964 1121.63 68.0446 1121.63 86.2619V88.4862H1154.25V111.223H1121.63V188.329C1121.63 197.226 1126.82 200.686 1135.47 200.686C1143.62 200.686 1149.06 199.203 1155.98 196.237L1152.52 222.681C1144.86 225.399 1135.22 226.388 1128.79 226.388Z" fill="#FEF2E6" style="fill:#FEF2E6;fill:color(display-p3 0.9961 0.9490 0.9020);fill-opacity:1;"/>
<path fill-rule="evenodd" clip-rule="evenodd" d="M1000.59 226.422C961.291 226.422 930.152 202.697 930.152 159.201C930.152 114.964 958.82 85.0602 1000.09 85.0602C1042.85 85.0602 1065.09 114.716 1064.35 161.178H961.785C962.774 189.845 980.32 203.685 1000.83 203.685C1022.33 203.685 1035.43 190.093 1040.87 175.017L1066.32 191.081C1050.26 215.053 1027.03 226.422 1000.59 226.422ZM963.762 139.677H1032.96C1030.24 120.895 1019.61 107.055 1000.09 107.055C982.05 107.055 968.705 119.165 963.762 139.677Z" fill="#FEF2E6" style="fill:#FEF2E6;fill:color(display-p3 0.9961 0.9490 0.9020);fill-opacity:1;"/>
<path d="M779.761 88.5201V222.962H810.406V162.166C810.406 129.792 834.13 109.032 854.89 109.032C873.919 109.032 882.322 119.412 882.322 136.959V222.962H914.202C913.214 212.088 912.719 200.967 912.719 190.834V131.522C912.719 106.067 897.891 85.0602 865.764 85.0602C841.792 85.0602 820.044 100.877 810.406 124.849V88.5201H779.761Z" fill="#FEF2E6" style="fill:#FEF2E6;fill:color(display-p3 0.9961 0.9490 0.9020);fill-opacity:1;"/>
<path fill-rule="evenodd" clip-rule="evenodd" d="M698.528 226.422C659.233 226.422 628.094 202.697 628.094 159.201C628.094 114.964 656.762 85.0602 698.033 85.0602C740.788 85.0602 763.03 114.716 762.288 161.178H659.727C660.716 189.845 678.262 203.685 698.775 203.685C720.275 203.685 733.374 190.093 738.811 175.017L764.265 191.081C748.202 215.053 724.971 226.422 698.528 226.422ZM661.704 139.677H730.902C728.184 120.895 717.557 107.055 698.033 107.055C679.992 107.055 666.647 119.165 661.704 139.677Z" fill="#FEF2E6" style="fill:#FEF2E6;fill:color(display-p3 0.9961 0.9490 0.9020);fill-opacity:1;"/>
<path d="M489.908 88.4735L546.255 222.915H575.417L631.022 88.4735H602.354C601.119 97.8646 599.389 103.549 595.435 113.434L575.911 161.625C569.98 176.206 564.048 190.293 564.048 190.293C564.048 190.293 560.341 175.712 554.163 161.378L523.024 88.4735H489.908Z" fill="#FEF2E6" style="fill:#FEF2E6;fill:color(display-p3 0.9961 0.9490 0.9020);fill-opacity:1;"/>
<path d="M121.015 76.9922C116.929 74.5782 111.854 74.5782 107.769 76.9922L58.7139 105.979C52.5238 109.637 50.4709 117.62 54.1287 123.81C57.7865 130.001 65.7698 132.053 71.9599 128.396L114.392 103.322L156.824 128.396C163.014 132.053 170.997 130.001 174.655 123.81C178.313 117.62 176.26 109.637 170.07 105.979L121.015 76.9922Z" fill="#FEF2E6" style="fill:#FEF2E6;fill:color(display-p3 0.9961 0.9490 0.9020);fill-opacity:1;"/>
<path fill-rule="evenodd" clip-rule="evenodd" d="M105.412 2.80314C110.951 -0.470188 117.833 -0.470187 123.373 2.80314L219.926 59.8576C225.301 63.0336 228.599 68.8122 228.599 75.0551V189.88C228.599 196.123 225.301 201.902 219.926 205.078L123.373 262.132C117.833 265.405 110.951 265.405 105.412 262.132L8.85819 205.078C3.4835 201.902 0.186035 196.123 0.186035 189.88V75.0551C0.186035 68.8122 3.4835 63.0336 8.85819 59.8576L105.412 2.80314ZM26.2235 79.8398L114.392 27.7401L202.561 79.8398V185.095L114.392 237.195L26.2235 185.095V79.8398Z" fill="#FEF2E6" style="fill:#FEF2E6;fill:color(display-p3 0.9961 0.9490 0.9020);fill-opacity:1;"/>
</svg>
