<svg width="1157" height="265" viewBox="0 0 1157 265" fill="none" xmlns="http://www.w3.org/2000/svg">
<path d="M370.352 109.169C389.381 109.169 397.784 119.549 397.784 137.096V223.099H429.664C428.676 212.225 428.181 202.092 428.181 190.971V131.659C428.181 106.204 413.353 85.1972 381.226 85.1972C356.265 85.1972 335.259 101.755 325.867 125.233V42.1562H295.223V223.099H325.867V162.303C325.867 131.164 349.592 109.169 370.352 109.169Z" fill="#0B090A" style="fill:#0B090A;fill:color(display-p3 0.0431 0.0353 0.0392);fill-opacity:1;"/>
<path d="M449.102 223.094V88.6521H479.747V190.966C479.747 201.099 479.994 212.22 481.229 223.094H449.102Z" fill="#0B090A" style="fill:#0B090A;fill:color(display-p3 0.0431 0.0353 0.0392);fill-opacity:1;"/>
<path d="M448.113 71.3527V42.1907H480.735V71.3527H448.113Z" fill="#0B090A" style="fill:#0B090A;fill:color(display-p3 0.0431 0.0353 0.0392);fill-opacity:1;"/>
<path d="M1129.01 226.537C1104.79 226.537 1091.45 215.664 1091.45 192.433V111.373H1067.23V88.6361H1091.45V56.8234C1104.3 53.6107 1113.19 48.9151 1123.08 42.2424C1122.34 54.8463 1121.84 68.1945 1121.84 86.4118V88.6361H1154.47V111.373H1121.84V188.479C1121.84 197.376 1127.03 200.835 1135.68 200.835C1143.84 200.835 1149.28 199.353 1156.2 196.387L1152.74 222.83C1145.07 225.549 1135.44 226.537 1129.01 226.537Z" fill="#0B090A" style="fill:#0B090A;fill:color(display-p3 0.0431 0.0353 0.0392);fill-opacity:1;"/>
<path fill-rule="evenodd" clip-rule="evenodd" d="M1000.8 226.571C961.507 226.571 930.368 202.846 930.368 159.351C930.368 115.113 959.036 85.2101 1000.31 85.2101C1043.06 85.2101 1065.3 114.866 1064.56 161.328H962.002C962.99 189.995 980.537 203.835 1001.05 203.835C1022.55 203.835 1035.65 190.243 1041.08 175.167L1066.54 191.231C1050.48 215.203 1027.25 226.571 1000.8 226.571ZM963.979 139.827H1033.18C1030.46 121.045 1019.83 107.205 1000.31 107.205C982.267 107.205 968.921 119.315 963.979 139.827Z" fill="#0B090A" style="fill:#0B090A;fill:color(display-p3 0.0431 0.0353 0.0392);fill-opacity:1;"/>
<path d="M779.977 88.67V223.112H810.622V162.316C810.622 129.942 834.347 109.182 855.106 109.182C874.136 109.182 882.538 119.562 882.538 137.108V223.112H914.419C913.43 212.238 912.936 201.117 912.936 190.984V131.672C912.936 106.217 898.108 85.2101 865.98 85.2101C842.008 85.2101 820.26 101.027 810.622 124.999V88.67H779.977Z" fill="#0B090A" style="fill:#0B090A;fill:color(display-p3 0.0431 0.0353 0.0392);fill-opacity:1;"/>
<path fill-rule="evenodd" clip-rule="evenodd" d="M698.744 226.571C659.449 226.571 628.31 202.846 628.31 159.351C628.31 115.113 656.978 85.2101 698.25 85.2101C741.004 85.2101 763.246 114.866 762.505 161.328H659.944C660.932 189.995 678.479 203.835 698.991 203.835C720.492 203.835 733.59 190.243 739.027 175.167L764.482 191.231C748.418 215.203 725.187 226.571 698.744 226.571ZM661.921 139.827H731.119C728.4 121.045 717.773 107.205 698.25 107.205C680.209 107.205 666.863 119.315 661.921 139.827Z" fill="#0B090A" style="fill:#0B090A;fill:color(display-p3 0.0431 0.0353 0.0392);fill-opacity:1;"/>
<path d="M490.124 88.6234L546.471 223.065H575.633L631.238 88.6234H602.571C601.335 98.0145 599.605 103.699 595.651 113.584L576.127 161.775C570.196 176.356 564.265 190.443 564.265 190.443C564.265 190.443 560.558 175.862 554.379 161.528L523.24 88.6234H490.124Z" fill="#0B090A" style="fill:#0B090A;fill:color(display-p3 0.0431 0.0353 0.0392);fill-opacity:1;"/>
<path d="M121.231 77.1421C117.146 74.7281 112.07 74.7281 107.985 77.1421L58.9302 106.129C52.7401 109.787 50.6872 117.77 54.345 123.96C58.0028 130.15 65.9861 132.203 72.1762 128.545L114.608 103.472L157.04 128.545C163.23 132.203 171.213 130.15 174.871 123.96C178.529 117.77 176.476 109.787 170.286 106.129L121.231 77.1421Z" fill="#FDDAB6" style="fill:#FDDAB6;fill:color(display-p3 0.9922 0.8549 0.7137);fill-opacity:1;"/>
<path fill-rule="evenodd" clip-rule="evenodd" d="M105.628 2.95304C111.168 -0.320286 118.049 -0.320285 123.589 2.95304L220.143 60.0075C225.517 63.1835 228.815 68.9621 228.815 75.205V190.03C228.815 196.273 225.517 202.052 220.143 205.227L123.589 262.282C118.049 265.555 111.168 265.555 105.628 262.282L9.0745 205.227C3.6998 202.052 0.402344 196.273 0.402344 190.03V75.205C0.402344 68.9621 3.69981 63.1835 9.0745 60.0075L105.628 2.95304ZM26.4398 79.9897L114.609 27.89L202.777 79.9897V185.245L114.609 237.345L26.4398 185.245V79.9897Z" fill="#FDDAB6" style="fill:#FDDAB6;fill:color(display-p3 0.9922 0.8549 0.7137);fill-opacity:1;"/>
</svg>
